<svg xmlns="http://www.w3.org/2000/svg" viewBox="0 0 1520 820" font-family="Helvetica,Arial,sans-serif">
<defs>
<marker id="ah" markerWidth="10" markerHeight="10" refX="7.5" refY="3" orient="auto"><path d="M0,0 L7.5,3 L0,6 Z" fill="#222"/></marker>
<marker id="ahR" markerWidth="10" markerHeight="10" refX="7.5" refY="3" orient="auto"><path d="M0,0 L7.5,3 L0,6 Z" fill="#c0392b"/></marker>
<marker id="ahP" markerWidth="10" markerHeight="10" refX="7.5" refY="3" orient="auto"><path d="M0,0 L7.5,3 L0,6 Z" fill="#7d3c98"/></marker>
<marker id="ahG" markerWidth="10" markerHeight="10" refX="7.5" refY="3" orient="auto"><path d="M0,0 L7.5,3 L0,6 Z" fill="#1e8449"/></marker>
<marker id="ahO" markerWidth="10" markerHeight="10" refX="7.5" refY="3" orient="auto"><path d="M0,0 L7.5,3 L0,6 Z" fill="#c07b1f"/></marker>
<pattern id="grid" width="20" height="20" patternUnits="userSpaceOnUse"><path d="M20 0 H0 V20" fill="none" stroke="#eef1e6" stroke-width="1"/></pattern>
</defs>
<rect width="1520" height="820" fill="#fbfcf7"/><rect width="1520" height="820" fill="url(#grid)"/>
<rect x="336" y="112" width="24" height="586" rx="3" fill="#eef0e2" stroke="#8a9070" stroke-width="1.4"/>
<text x="348" y="104" font-size="12" text-anchor="middle" fill="#555" font-weight="bold">IF/ID</text>
<rect x="648" y="112" width="24" height="586" rx="3" fill="#eef0e2" stroke="#8a9070" stroke-width="1.4"/>
<text x="660" y="104" font-size="12" text-anchor="middle" fill="#555" font-weight="bold">ID/EXE</text>
<rect x="946" y="112" width="24" height="586" rx="3" fill="#eef0e2" stroke="#8a9070" stroke-width="1.4"/>
<text x="958" y="104" font-size="12" text-anchor="middle" fill="#555" font-weight="bold">EXE/MEM</text>
<rect x="1200" y="112" width="24" height="586" rx="3" fill="#eef0e2" stroke="#8a9070" stroke-width="1.4"/>
<text x="1212" y="104" font-size="12" text-anchor="middle" fill="#555" font-weight="bold">MEM/WB</text>
<path d="M30,250 L46,259 L46,321 L30,330 Z" fill="#f3f3ea" stroke="#333" stroke-width="1.3"/>
<text x="33" y="261" font-size="8" fill="#444">0</text>
<text x="33" y="327" font-size="8" fill="#444">1</text>
<rect x="66" y="272" width="38" height="34" rx="4" fill="#fff" stroke="#333" stroke-width="1.5"/>
<text x="85.0" y="293.0" font-size="13" text-anchor="middle">PC</text>
<rect x="150" y="250" width="96" height="88" rx="4" fill="#fff" stroke="#333" stroke-width="1.5"/>
<text x="198.0" y="290.0" font-size="12" text-anchor="middle">Instruction</text>
<text x="198.0" y="305.0" font-size="12" text-anchor="middle">Memory</text>
<path d="M176,168 L212,180 L212,214 L176,226 L176,202 L188,197 L176,192 Z" fill="#f3f3ea" stroke="#333" stroke-width="1.2"/>
<text x="194" y="201" font-size="10" text-anchor="middle">Add</text>
<text x="166" y="222" font-size="10" text-anchor="middle">4</text>
<rect x="372" y="120" width="190" height="36" rx="4" fill="#fdecec" stroke="#333" stroke-width="1.5"/>
<text x="467.0" y="142.0" font-size="12" text-anchor="middle">Hazard Detection Unit</text>
<rect x="372" y="214" width="140" height="108" rx="4" fill="#fff" stroke="#333" stroke-width="1.5"/>
<text x="442.0" y="272.0" font-size="13" text-anchor="middle"></text>
<text x="442" y="230" font-size="12" text-anchor="middle" font-weight="bold">Register File</text>
<text x="378" y="250" font-size="8.5" fill="#555">Read Reg1</text>
<text x="378" y="276" font-size="8.5" fill="#555">Read Reg2</text>
<text x="378" y="300" font-size="8.5" fill="#555">Write Reg</text>
<text x="378" y="316" font-size="8.5" fill="#555">Write Data</text>
<text x="506" y="250" font-size="8.5" fill="#555" text-anchor="end">Read Data1</text>
<text x="506" y="300" font-size="8.5" fill="#555" text-anchor="end">Read Data2</text>
<ellipse cx="410" cy="392" rx="44" ry="20" fill="#fff" stroke="#333" stroke-width="1.5"/>
<text x="410" y="389" font-size="12" text-anchor="middle">Sign</text>
<text x="410" y="402" font-size="12" text-anchor="middle">Extend</text>
<text x="360" y="378" font-size="8.5" fill="#666">(15-0) 16-bit</text>
<ellipse cx="452" cy="566" rx="50" ry="22" fill="#fff" stroke="#333" stroke-width="1.5"/>
<text x="452" y="570" font-size="12" text-anchor="middle">Control</text>
<path d="M600,500 L616,509 L616,557 L600,566 Z" fill="#f3f3ea" stroke="#333" stroke-width="1.3"/>
<text x="603" y="511" font-size="8" fill="#444">0</text>
<text x="603" y="563" font-size="8" fill="#444">1</text>
<rect x="690" y="168" width="50" height="26" rx="4" fill="#fff" stroke="#333" stroke-width="1.5"/>
<text x="715.0" y="177.0" font-size="9" text-anchor="middle">Shift</text>
<text x="715.0" y="192.0" font-size="9" text-anchor="middle">left 2</text>
<path d="M760,158 L792,170 L792,196 L760,208 L760,186 L770,183 L760,180 Z" fill="#f3f3ea" stroke="#333" stroke-width="1.2"/>
<text x="776" y="186" font-size="9" text-anchor="middle">Add</text>
<path d="M676,236 L692,245 L692,269 L676,278 Z" fill="#f3f3ea" stroke="#333" stroke-width="1.3"/>
<text x="679" y="247" font-size="8" fill="#444">0</text>
<text x="679" y="275" font-size="8" fill="#444">1</text>
<path d="M676,298 L692,307 L692,331 L676,340 Z" fill="#f3f3ea" stroke="#333" stroke-width="1.3"/>
<text x="679" y="309" font-size="8" fill="#444">0</text>
<text x="679" y="337" font-size="8" fill="#444">1</text>
<path d="M714,300 L730,309 L730,337 L714,346 Z" fill="#f3f3ea" stroke="#333" stroke-width="1.3"/>
<text x="717" y="311" font-size="8" fill="#444">0</text>
<text x="717" y="343" font-size="8" fill="#444">1</text>
<path d="M752,240 L808,258 L808,302 L752,320 L752,290 L766,280 L752,268 Z" fill="#eaf1fb" stroke="#274b7a" stroke-width="1.6"/>
<text x="784" y="278" font-size="12" text-anchor="middle" fill="#1b3a63">ALU</text>
<text x="782" y="292" font-size="8" text-anchor="middle" fill="#888">zero</text>
<ellipse cx="800" cy="398" rx="38" ry="18" fill="#fff" stroke="#333" stroke-width="1.5"/>
<text x="800" y="395" font-size="10" text-anchor="middle">ALU</text>
<text x="800" y="408" font-size="10" text-anchor="middle">Control</text>
<rect x="1000" y="236" width="120" height="104" rx="4" fill="#fff" stroke="#333" stroke-width="1.5"/>
<text x="1060.0" y="284.0" font-size="12" text-anchor="middle">Data</text>
<text x="1060.0" y="299.0" font-size="12" text-anchor="middle">Memory</text>
<text x="1006" y="262" font-size="8.5" fill="#555">Address</text>
<text x="1006" y="332" font-size="8.5" fill="#555">Write Data</text>
<text x="1114" y="262" font-size="8.5" fill="#555" text-anchor="end">Read Data</text>
<path d="M1300,244 L1316,253 L1316,315 L1300,324 Z" fill="#f3f3ea" stroke="#333" stroke-width="1.3"/>
<text x="1303" y="255" font-size="8" fill="#444">1</text>
<text x="1303" y="321" font-size="8" fill="#444">0</text>
<rect x="680" y="446" width="44" height="26" rx="4" fill="#fdeecd" stroke="#c07b1f" stroke-width="1.5"/>
<text x="702.0" y="463.0" font-size="10" text-anchor="middle">EX</text>
<rect x="680" y="478" width="44" height="26" rx="4" fill="#fdeecd" stroke="#c07b1f" stroke-width="1.5"/>
<text x="702.0" y="495.0" font-size="10" text-anchor="middle">MEM</text>
<rect x="680" y="510" width="44" height="26" rx="4" fill="#fdeecd" stroke="#c07b1f" stroke-width="1.5"/>
<text x="702.0" y="527.0" font-size="10" text-anchor="middle">WB</text>
<rect x="972" y="478" width="44" height="26" rx="4" fill="#fdeecd" stroke="#c07b1f" stroke-width="1.5"/>
<text x="994.0" y="495.0" font-size="10" text-anchor="middle">MEM</text>
<rect x="972" y="510" width="44" height="26" rx="4" fill="#fdeecd" stroke="#c07b1f" stroke-width="1.5"/>
<text x="994.0" y="527.0" font-size="10" text-anchor="middle">WB</text>
<rect x="1226" y="510" width="44" height="26" rx="4" fill="#fdeecd" stroke="#c07b1f" stroke-width="1.5"/>
<text x="1248.0" y="527.0" font-size="10" text-anchor="middle">WB</text>
<ellipse cx="1150" cy="66" rx="92" ry="24" fill="#eaf3ea" stroke="#333" stroke-width="1.5"/>
<text x="1150" y="70" font-size="12" text-anchor="middle">Forwarding Unit</text>
<rect x="40" y="470" width="58" height="30" rx="4" fill="#fdecec" stroke="#333" stroke-width="1.5"/>
<text x="69.0" y="489.0" font-size="12" text-anchor="middle">Stall</text>
<path d="M46,290 L66,290" fill="none" stroke="#333" stroke-width="1.4" marker-end="url(#ah)"/>
<path d="M104,290 L150,290" fill="none" stroke="#333" stroke-width="1.4" marker-end="url(#ah)"/>
<circle cx="126" cy="290" r="2.6" fill="#333"/>
<path d="M126,290 L126,199 L176,199" fill="none" stroke="#333" stroke-width="1.4" marker-end="url(#ah)"/>
<circle cx="212" cy="199" r="2.6" fill="#333"/>
<path d="M212,199 L212,144 L16,144 L16,262 L30,262" fill="none" stroke="#333" stroke-width="1.4" marker-end="url(#ah)"/>
<path d="M212,144 L752,144 L752,176 L760,176" fill="none" stroke="#333" stroke-width="1.4" marker-end="url(#ah)"/>
<path d="M246,290 L336,290" fill="none" stroke="#333" stroke-width="1.4" marker-end="url(#ah)"/>
<path d="M360,250 L372,250" fill="none" stroke="#333" stroke-width="1.4" marker-end="url(#ah)"/>
<path d="M360,276 L372,276" fill="none" stroke="#333" stroke-width="1.4" marker-end="url(#ah)"/>
<path d="M360,392 L366,392" fill="none" stroke="#333" stroke-width="1.4" marker-end="url(#ah)"/>
<path d="M360,566 L402,566" fill="none" stroke="#333" stroke-width="1.4" marker-end="url(#ah)"/>
<path d="M360,138 L372,138" fill="none" stroke="#333" stroke-width="1.4" marker-end="url(#ah)"/>
<path d="M360,338 L648,338" fill="none" stroke="#333" stroke-width="1.4" marker-end="url(#ah)"/>
<text x="470" y="334" font-size="8.5" fill="#777">dest reg</text>
<path d="M512,250 L648,250" fill="none" stroke="#333" stroke-width="1.4" marker-end="url(#ah)"/>
<path d="M512,300 L648,300" fill="none" stroke="#333" stroke-width="1.4" marker-end="url(#ah)"/>
<path d="M454,392 L648,392" fill="none" stroke="#333" stroke-width="1.4" marker-end="url(#ah)"/>
<text x="556" y="388" font-size="8.5" fill="#777">32-bit</text>
<path d="M502,566 L590,566 L590,533 L600,533" fill="none" stroke="#333" stroke-width="1.4" marker-end="url(#ah)"/>
<path d="M616,533 L648,533" fill="none" stroke="#333" stroke-width="1.4" marker-end="url(#ah)"/>
<path d="M648,250 L676,244" fill="none" stroke="#333" stroke-width="1.4" marker-end="url(#ah)"/>
<path d="M648,300 L676,306" fill="none" stroke="#333" stroke-width="1.4" marker-end="url(#ah)"/>
<path d="M692,257 L752,260" fill="none" stroke="#333" stroke-width="1.4" marker-end="url(#ah)"/>
<path d="M692,319 L714,312" fill="none" stroke="#333" stroke-width="1.4" marker-end="url(#ah)"/>
<path d="M648,392 L700,392 L700,322 L714,322" fill="none" stroke="#333" stroke-width="1.4" marker-end="url(#ah)"/>
<path d="M730,323 L752,304" fill="none" stroke="#333" stroke-width="1.4" marker-end="url(#ah)"/>
<path d="M800,380 L800,320" fill="none" stroke="#333" stroke-width="1.4" marker-end="url(#ah)"/>
<path d="M808,280 L946,280" fill="none" stroke="#333" stroke-width="1.4" marker-end="url(#ah)"/>
<circle cx="700" cy="306" r="2.6" fill="#333"/>
<path d="M700,306 L700,352 L946,352" fill="none" stroke="#333" stroke-width="1.4" marker-end="url(#ah)"/>
<text x="770" y="348" font-size="8.5" fill="#777">store data</text>
<path d="M648,392 L672,392 L672,181 L690,181" fill="none" stroke="#333" stroke-width="1.4" marker-end="url(#ah)"/>
<path d="M740,190 L760,192" fill="none" stroke="#333" stroke-width="1.4" marker-end="url(#ah)"/>
<path d="M792,183 L810,183 L810,92 L12,92 L12,300 L30,300" fill="none" stroke="#333" stroke-width="1.4" marker-end="url(#ah)"/>
<text x="360" y="88" font-size="8.5" fill="#777">branch target</text>
<path d="M970,280 L1000,258" fill="none" stroke="#333" stroke-width="1.4" marker-end="url(#ah)"/>
<path d="M970,352 L1000,326" fill="none" stroke="#333" stroke-width="1.4" marker-end="url(#ah)"/>
<path d="M1120,258 L1200,258" fill="none" stroke="#333" stroke-width="1.4" marker-end="url(#ah)"/>
<circle cx="984" cy="280" r="2.6" fill="#333"/>
<path d="M984,280 L984,222 L1176,222 L1176,300 L1200,300" fill="none" stroke="#333" stroke-width="1.4" marker-end="url(#ah)"/>
<path d="M1224,258 L1300,258" fill="none" stroke="#333" stroke-width="1.4" marker-end="url(#ah)"/>
<path d="M1224,300 L1300,300" fill="none" stroke="#333" stroke-width="1.4" marker-end="url(#ah)"/>
<path d="M1316,284 L1360,284 L1360,752 L300,752 L300,316 L372,316" fill="none" stroke="#1e8449" stroke-width="1.4" marker-end="url(#ahG)"/>
<text x="150" y="748" font-size="9" fill="#1e8449">Write-Back data to Register File</text>
<path d="M1200,300 L1420,300 L1420,780 L268,780 L268,300 L372,300" fill="none" stroke="#1e8449" stroke-width="1.1" marker-end="url(#ahG)"/>
<path d="M724,459 L724,412 L800,412 L800,416" fill="none" stroke="#c07b1f" stroke-width="1.2" marker-end="url(#ahO)"/>
<path d="M724,491 L972,491" fill="none" stroke="#c07b1f" stroke-width="1.2" marker-end="url(#ahO)"/>
<path d="M724,523 L972,523" fill="none" stroke="#c07b1f" stroke-width="1.2" marker-end="url(#ahO)"/>
<path d="M1016,491 L1060,491 L1060,344" fill="none" stroke="#c07b1f" stroke-width="1.2" marker-end="url(#ahO)"/>
<path d="M1016,523 L1226,523" fill="none" stroke="#c07b1f" stroke-width="1.2" marker-end="url(#ahO)"/>
<path d="M1270,523 L1330,523 L1330,330" fill="none" stroke="#c07b1f" stroke-width="1.2" marker-end="url(#ahO)"/>
<path d="M672,459 L680,459" fill="none" stroke="#333" stroke-width="1.1" marker-end="url(#ah)"/>
<path d="M672,491 L680,491" fill="none" stroke="#333" stroke-width="1.1" marker-end="url(#ah)"/>
<path d="M672,523 L680,523" fill="none" stroke="#333" stroke-width="1.1" marker-end="url(#ah)"/>
<path d="M946,112 L946,66 L1058,66" fill="none" stroke="#c0392b" stroke-width="1.4" stroke-dasharray="5 4" marker-end="url(#ahR)"/>
<path d="M1200,112 L1200,66 L1242,66" fill="none" stroke="#c0392b" stroke-width="1.4" stroke-dasharray="5 4" marker-end="url(#ahR)"/>
<path d="M648,124 L648,54 L1058,54" fill="none" stroke="#c0392b" stroke-width="1.4" stroke-dasharray="5 4" marker-end="url(#ahR)"/>
<path d="M1150,90 L1150,214 L668,214 L668,236" fill="none" stroke="#c0392b" stroke-width="1.4" stroke-dasharray="5 4" marker-end="url(#ahR)"/>
<circle cx="668" cy="214" r="2.6" fill="#c0392b"/>
<path d="M668,214 L668,298" fill="none" stroke="#c0392b" stroke-width="1.4" stroke-dasharray="5 4" marker-end="url(#ahR)"/>
<text x="930" y="150" font-size="9" fill="#c0392b">ForwardA / ForwardB</text>
<path d="M648,138 L562,138" fill="none" stroke="#7d3c98" stroke-width="1.4" stroke-dasharray="5 4" marker-end="url(#ahP)"/>
<path d="M466,156 L466,175 L120,175 L120,470" fill="none" stroke="#7d3c98" stroke-width="1.4" stroke-dasharray="5 4" marker-end="url(#ahP)"/>
<path d="M40,482 L14,482 L14,318 L30,318" fill="none" stroke="#7d3c98" stroke-width="1.4" stroke-dasharray="5 4" marker-end="url(#ahP)"/>
<path d="M98,478 L250,478 L250,560 L336,560" fill="none" stroke="#7d3c98" stroke-width="1.4" stroke-dasharray="5 4" marker-end="url(#ahP)"/>
<circle cx="250" cy="478" r="2.6" fill="#7d3c98"/>
<path d="M250,540 L596,540 L596,528 L600,528" fill="none" stroke="#7d3c98" stroke-width="1.4" stroke-dasharray="5 4" marker-end="url(#ahP)"/>
<text x="128" y="462" font-size="9" fill="#7d3c98">stall: hold PC + IF/ID, flush ID/EXE</text>
</svg>